PathFileType	4	(X/Y/Z)	/Users/mathieubourgeois/Desktop/Analyse/Traitement/Sujet_03/Transformed_Static_Sujet_03_Tpose.trc
DataRate	CameraRate	NumFrames	NumMarkers	Units	OrigDataRate	OrigDataStartFrame	OrigNumFrames
120.000000	120.000000	4	36	mm	120.000000	152	244
Frame#	Time	RFHD			LFHD			RBHD			LBHD			C7			CLAV			RSHO			LSHO			STRN			T10			RBWT			LBWT			RFWT			LFWT			RKNI			LKNI			RKNE			LKNE			LANI			RANI			LANE			RANE			LTOE			RTOE			LHEE			RHEE			RHUM			LHUM			RRAD			LRAD			RWRA			RWRB			LWRA			LWRB			RCAR			LCAR			
		X1	Y1	Z1	X2	Y2	Z2	X3	Y3	Z3	X4	Y4	Z4	X5	Y5	Z5	X6	Y6	Z6	X7	Y7	Z7	X8	Y8	Z8	X9	Y9	Z9	X10	Y10	Z10	X11	Y11	Z11	X12	Y12	Z12	X13	Y13	Z13	X14	Y14	Z14	X15	Y15	Z15	X16	Y16	Z16	X17	Y17	Z17	X18	Y18	Z18	X19	Y19	Z19	X20	Y20	Z20	X21	Y21	Z21	X22	Y22	Z22	X23	Y23	Z23	X24	Y24	Z24	X25	Y25	Z25	X26	Y26	Z26	X27	Y27	Z27	X28	Y28	Z28	X29	Y29	Z29	X30	Y30	Z30	X31	Y31	Z31	X32	Y32	Z32	X33	Y33	Z33	X34	Y34	Z34	X35	Y35	Z35	X36	Y36	Z36	

153	1.266666666666667	-730.1748657226562	1771.827026367188	305.2440795898435	-574.9244384765625	1767.531616210938	297.4165039062498	-736.9556884765625	1734.368041992188	176.8808746337889	-589.0589599609375	1733.406982421875	152.3505859374998	-651.35888671875	1575.497436523438	138.046432495117	-647.80078125	1504.6328125	271.171417236328	-804.1363525390625	1589.411254882812	164.132598876953	-496.7822875976562	1593.729736328125	144.2939453124999	-645.275146484375	1337.12109375	316.7962036132811	-648.81103515625	1333.415283203125	97.55171203613264	-719.4961547851562	1090.972412109375	123.923614501953	-599.707275390625	1089.818725585938	129.0626678466795	-790.7472534179688	1055.387451171875	286.101104736328	-537.648193359375	1038.08642578125	294.1188964843749	-730.7796020507812	478.7501220703125	168.0235137939452	-591.0408325195312	480.1669006347656	156.2637786865233	-840.5390014648438	533.355224609375	172.9323120117186	-486.9795532226562	525.2778930664062	165.9960479736327	-586.0087890625	94.96775817871095	139.7549743652343	-730.0137939453125	98.16891479492189	159.9929046630859	-496.4489440917969	75.18308258056642	120.060920715332	-816.59033203125	82.29062652587892	130.9467926025389	-522.1080932617188	31.81688308715822	326.9678955078124	-797.5555419921875	32.41337585449221	341.7123718261718	-544.0957641601562	38.89136505126954	61.55638122558587	-766.8541870117188	39.35609817504884	74.01441955566396	-1092.71435546875	1495.076049804688	213.882873535156	-199.9366912841797	1505.351684570312	219.0591430664061	-1107.280517578125	1528.16455078125	144.2716064453123	-193.6024017333985	1537.692138671875	146.2718048095702	-1361.822021484375	1617.330200195312	184.9676208496091	-1370.683959960938	1556.76513671875	135.6618652343747	57.85391616821287	1599.02197265625	176.231948852539	67.66684722900389	1527.997314453125	149.8497009277343	-1469.969848632812	1605.033447265625	130.8171539306638	167.5606079101562	1572.008544921875	159.4649658203124	
154	1.275	-730.1381225585938	1771.814331054688	305.3417053222654	-574.8778076171875	1767.537719726562	297.5198364257811	-736.9235229492188	1734.353637695312	176.9714508056639	-589.0331420898438	1733.41845703125	152.4355773925779	-651.3409423828125	1575.487670898438	138.1483612060545	-647.7765502929688	1504.636474609375	271.2546997070311	-804.1063842773438	1589.413208007812	164.2164764404295	-496.755126953125	1593.718017578125	144.361862182617	-645.2528076171875	1337.119384765625	316.8865966796874	-648.8068237304688	1333.42578125	97.61771392822249	-719.4894409179688	1090.972045898438	123.9480133056639	-599.7160034179688	1089.829467773438	129.1234283447264	-790.74609375	1055.38720703125	286.1457519531248	-537.6668701171875	1038.082763671875	294.1604003906249	-730.7752075195312	478.7572021484375	168.0296630859374	-591.027587890625	480.1735534667969	156.2688751220702	-840.534423828125	533.3574829101562	172.9532165527342	-486.9797668457031	525.2792358398438	166.0119018554687	-586.0198974609375	94.97083282470705	139.7564086914062	-730.0078735351562	98.17406463623048	160.0006561279296	-496.4441223144531	75.1926956176758	120.0636444091796	-816.5946044921875	82.30236053466798	130.9523010253905	-522.1093139648438	31.82583427429201	326.9686279296874	-797.552978515625	32.41027450561526	341.7262268066405	-544.1026000976562	38.88843154907227	61.55952072143548	-766.8502197265625	39.35602188110352	74.01435089111318	-1092.676635742188	1495.091674804688	213.9566497802732	-199.8985290527344	1505.3251953125	219.1450653076171	-1107.249145507812	1528.170288085938	144.353576660156	-193.589828491211	1537.667846679688	146.3389587402343	-1361.787475585938	1617.345825195312	185.063537597656	-1370.651000976562	1556.774047851562	135.7562103271482	57.87451934814451	1598.967407226562	176.2532653808593	67.68970489501952	1527.914428710938	149.9093933105468	-1469.933715820312	1605.046142578125	130.8879394531247	167.586929321289	1571.931762695312	159.4705505371093	
155	1.283333333333333	-730.0905151367188	1771.81396484375	305.4198608398435	-574.8357543945312	1767.525268554688	297.6390686035155	-736.883056640625	1734.354614257812	177.060348510742	-588.9869995117188	1733.4140625	152.5343933105467	-651.317138671875	1575.490600585938	138.2392272949217	-647.7447509765625	1504.640502929688	271.342315673828	-804.0743408203125	1589.431274414062	164.305465698242	-496.7406311035156	1593.713745117188	144.4540710449217	-645.23486328125	1337.114013671875	316.9688110351561	-648.80126953125	1333.435546875	97.67488098144514	-719.4912109375	1090.990966796875	124.0002670288084	-599.6925659179688	1089.832397460938	129.1554870605467	-790.7471313476562	1055.366577148438	286.1932067871092	-537.6585083007812	1038.068969726562	294.2032775878905	-730.7720336914062	478.7631530761719	168.0408630371093	-591.0380249023438	480.153564453125	156.253936767578	-840.537353515625	533.35693359375	172.9767303466795	-486.9782104492188	525.28076171875	166.0241546630859	-586.0078735351562	94.97351837158205	139.7504882812499	-730.0003051757812	98.17202758789064	160.0021667480468	-496.4411926269531	75.19958496093751	120.0631637573242	-816.5916137695312	82.29241943359376	130.9516296386718	-522.1113891601562	31.83100509643557	326.9763488769531	-797.5516357421875	32.41300582885744	341.7236328124999	-544.1090087890625	38.88944625854493	61.54484558105462	-766.8404541015625	39.36495208740235	74.00848388671865	-1092.638427734375	1495.098754882812	214.0494384765623	-199.8737030029297	1505.301025390625	219.2076721191405	-1107.22900390625	1528.1875	144.4349212646482	-193.5549774169922	1537.642456054688	146.418975830078	-1361.77001953125	1617.342651367188	185.1632385253904	-1370.61474609375	1556.770263671875	135.8589935302732	57.89545059204099	1598.906982421875	176.2531127929687	67.69783782958983	1527.86669921875	149.932632446289	-1469.907348632812	1605.052124023438	130.9532775878904	167.6206817626953	1571.880859375	159.4707794189453	
156	1.291666666666667	-730.0445556640625	1771.810791015625	305.5345764160154	-574.8060302734375	1767.52392578125	297.7542419433592	-736.8472290039062	1734.356689453125	177.1705474853514	-588.9549560546875	1733.397338867188	152.6237640380857	-651.2921142578125	1575.493408203125	138.3441772460936	-647.7161254882812	1504.640869140625	271.4340820312498	-804.0433959960938	1589.439086914062	164.3842926025389	-496.7099609375	1593.709716796875	144.5182189941405	-645.2100830078125	1337.117431640625	317.0555419921874	-648.7864990234375	1333.446411132812	97.72774505615217	-719.49267578125	1090.976928710938	124.0550003051756	-599.6998291015625	1089.827880859375	129.2141723632811	-790.7378540039062	1055.364501953125	286.2479248046873	-537.6487426757812	1038.064697265625	294.2684326171874	-730.7689208984375	478.7577209472656	168.0403747558593	-591.0357055664062	480.171630859375	156.2834167480468	-840.5352172851562	533.345947265625	172.9797515869139	-486.9754333496094	525.2830810546875	166.0128936767577	-586.0020141601562	94.97293090820314	139.7657165527343	-730.0062255859375	98.17092132568361	160.0079040527343	-496.4459533691406	75.19644165039064	120.066062927246	-816.59130859375	82.2960662841797	130.9542541503905	-522.1134643554688	31.82855606079104	326.9745178222656	-797.559326171875	32.41458129882815	341.7242431640624	-544.1004028320312	38.88718414306641	61.5568885803222	-766.8543090820312	39.37081527709962	73.99980926513662	-1092.602905273438	1495.122802734375	214.1369323730466	-199.8407745361328	1505.265258789062	219.2635498046874	-1107.183227539062	1528.210327148438	144.528137207031	-193.5331573486328	1537.593139648438	146.4849090576171	-1361.742919921875	1617.34765625	185.2702026367185	-1370.58154296875	1556.783325195312	135.9169006347654	57.92830657958982	1598.865234375	176.2736816406249	67.72122192382811	1527.82177734375	149.9466094970702	-1469.891845703125	1605.059814453125	131.0131378173826	167.6283721923828	1571.829711914062	159.4682922363281	
